<svg width="99" height="99" viewBox="0 0 99 99" fill="none" xmlns="http://www.w3.org/2000/svg">
<g filter="url(#filter0_d_574_14376)">
<path fill-rule="evenodd" clip-rule="evenodd" d="M12.1783 31.2154C14.817 18.4502 22.9355 11.3404 35.5992 9.19245C44.9606 7.60512 54.3254 7.58507 63.6708 9.23712C76.71 11.542 84.5483 19.0664 87.0454 32.0245C88.9748 42.0393 89.005 52.1606 87.0152 62.1656C84.3457 74.8426 76.0178 82.6676 63.4009 84.8075C54.0395 86.3949 44.6747 86.4149 35.3293 84.7629C22.2901 82.458 14.4169 74.558 11.9198 61.5999C9.89231 51.5192 10.0875 41.3338 12.1783 31.2154Z" fill="url(#paint0_linear_574_14376)"/>
</g>
<g filter="url(#filter1_d_574_14376)">
<path d="M72.6562 60.4062V44.5625C72.6562 31.7737 62.2888 21.4062 49.5 21.4062V21.4062C36.7112 21.4062 26.3438 31.7737 26.3438 44.5625V60.4062" stroke="url(#paint1_linear_574_14376)" stroke-width="2.4375" stroke-linecap="round"/>
<path d="M34.875 47.5307C34.875 46.6327 34.875 46.1838 34.7237 45.8488C34.5155 45.3881 34.1137 45.0433 33.6266 44.9077C33.2726 44.809 32.8288 44.8773 31.9414 45.0138C29.056 45.4577 27.6133 45.6797 26.4826 46.3001C24.9275 47.1533 23.7356 48.5426 23.1287 50.2094C22.6875 51.4213 22.6875 52.8809 22.6875 55.8002V57.6998C22.6875 60.6191 22.6875 62.0787 23.1287 63.2906C23.7356 64.9574 24.9275 66.3467 26.4826 67.1999C27.6133 67.8203 29.056 68.0423 31.9414 68.4862C32.8288 68.6227 33.2726 68.691 33.6266 68.5923C34.1137 68.4567 34.5155 68.1119 34.7237 67.6512C34.875 67.3162 34.875 66.8673 34.875 65.9693V47.5307Z" fill="url(#paint2_linear_574_14376)"/>
<path d="M34.875 47.5307C34.875 46.6327 34.875 46.1838 34.7237 45.8488C34.5155 45.3881 34.1137 45.0433 33.6266 44.9077C33.2726 44.809 32.8288 44.8773 31.9414 45.0138C29.056 45.4577 27.6133 45.6797 26.4826 46.3001C24.9275 47.1533 23.7356 48.5426 23.1287 50.2094C22.6875 51.4213 22.6875 52.8809 22.6875 55.8002V57.6998C22.6875 60.6191 22.6875 62.0787 23.1287 63.2906C23.7356 64.9574 24.9275 66.3467 26.4826 67.1999C27.6133 67.8203 29.056 68.0423 31.9414 68.4862C32.8288 68.6227 33.2726 68.691 33.6266 68.5923C34.1137 68.4567 34.5155 68.1119 34.7237 67.6512C34.875 67.3162 34.875 66.8673 34.875 65.9693V47.5307Z" fill="url(#paint3_linear_574_14376)"/>
<path d="M64.125 47.5307C64.125 46.6327 64.125 46.1838 64.2763 45.8488C64.4845 45.3881 64.8863 45.0433 65.3734 44.9077C65.7274 44.809 66.1712 44.8773 67.0586 45.0138C69.944 45.4577 71.3867 45.6797 72.5174 46.3001C74.0725 47.1533 75.2644 48.5426 75.8713 50.2094C76.3125 51.4213 76.3125 52.8809 76.3125 55.8002V57.6998C76.3125 60.6191 76.3125 62.0787 75.8713 63.2906C75.2644 64.9574 74.0725 66.3467 72.5174 67.1999C71.3867 67.8203 69.944 68.0423 67.0586 68.4862C66.1712 68.6227 65.7274 68.691 65.3734 68.5923C64.8863 68.4567 64.4845 68.1119 64.2763 67.6512C64.125 67.3162 64.125 66.8673 64.125 65.9693V47.5307Z" fill="url(#paint4_linear_574_14376)"/>
<path d="M64.125 47.5307C64.125 46.6327 64.125 46.1838 64.2763 45.8488C64.4845 45.3881 64.8863 45.0433 65.3734 44.9077C65.7274 44.809 66.1712 44.8773 67.0586 45.0138C69.944 45.4577 71.3867 45.6797 72.5174 46.3001C74.0725 47.1533 75.2644 48.5426 75.8713 50.2094C76.3125 51.4213 76.3125 52.8809 76.3125 55.8002V57.6998C76.3125 60.6191 76.3125 62.0787 75.8713 63.2906C75.2644 64.9574 74.0725 66.3467 72.5174 67.1999C71.3867 67.8203 69.944 68.0423 67.0586 68.4862C66.1712 68.6227 65.7274 68.691 65.3734 68.5923C64.8863 68.4567 64.4845 68.1119 64.2763 67.6512C64.125 67.3162 64.125 66.8673 64.125 65.9693V47.5307Z" fill="url(#paint5_linear_574_14376)"/>
<rect x="38.5312" y="49.4375" width="2.4375" height="14.625" rx="1.21875" fill="url(#paint6_linear_574_14376)"/>
<rect x="38.5312" y="49.4375" width="2.4375" height="14.625" rx="1.21875" fill="url(#paint7_linear_574_14376)"/>
<rect x="43.4062" y="51.875" width="2.4375" height="9.75" rx="1.21875" fill="url(#paint8_linear_574_14376)"/>
<rect x="43.4062" y="51.875" width="2.4375" height="9.75" rx="1.21875" fill="url(#paint9_linear_574_14376)"/>
<rect x="58.0312" y="49.4375" width="2.4375" height="14.625" rx="1.21875" fill="url(#paint10_linear_574_14376)"/>
<rect x="58.0312" y="49.4375" width="2.4375" height="14.625" rx="1.21875" fill="url(#paint11_linear_574_14376)"/>
<rect x="53.1562" y="51.875" width="2.4375" height="9.75" rx="1.21875" fill="url(#paint12_linear_574_14376)"/>
<rect x="53.1562" y="51.875" width="2.4375" height="9.75" rx="1.21875" fill="url(#paint13_linear_574_14376)"/>
<rect x="48.2812" y="47" width="2.4375" height="19.5" rx="1.21875" fill="url(#paint14_linear_574_14376)"/>
<rect x="48.2812" y="47" width="2.4375" height="19.5" rx="1.21875" fill="url(#paint15_linear_574_14376)"/>
</g>
<defs>
<filter id="filter0_d_574_14376" x="0.75" y="0.6875" width="97.5" height="97.5" filterUnits="userSpaceOnUse" color-interpolation-filters="sRGB">
<feFlood flood-opacity="0" result="BackgroundImageFix"/>
<feColorMatrix in="SourceAlpha" type="matrix" values="0 0 0 0 0 0 0 0 0 0 0 0 0 0 0 0 0 0 127 0" result="hardAlpha"/>
<feOffset dy="2.4375"/>
<feGaussianBlur stdDeviation="4.875"/>
<feComposite in2="hardAlpha" operator="out"/>
<feColorMatrix type="matrix" values="0 0 0 0 1 0 0 0 0 0.87451 0 0 0 0 0.654902 0 0 0 0.5 0"/>
<feBlend mode="normal" in2="BackgroundImageFix" result="effect1_dropShadow_574_14376"/>
<feBlend mode="normal" in="SourceGraphic" in2="effect1_dropShadow_574_14376" result="shape"/>
</filter>
<filter id="filter1_d_574_14376" x="20.25" y="18.9688" width="58.5" height="53.3265" filterUnits="userSpaceOnUse" color-interpolation-filters="sRGB">
<feFlood flood-opacity="0" result="BackgroundImageFix"/>
<feColorMatrix in="SourceAlpha" type="matrix" values="0 0 0 0 0 0 0 0 0 0 0 0 0 0 0 0 0 0 127 0" result="hardAlpha"/>
<feOffset dy="1.21875"/>
<feGaussianBlur stdDeviation="1.21875"/>
<feComposite in2="hardAlpha" operator="out"/>
<feColorMatrix type="matrix" values="0 0 0 0 0.972549 0 0 0 0 0.525176 0 0 0 0 0 0 0 0 0.3 0"/>
<feBlend mode="normal" in2="BackgroundImageFix" result="effect1_dropShadow_574_14376"/>
<feBlend mode="normal" in="SourceGraphic" in2="effect1_dropShadow_574_14376" result="shape"/>
</filter>
<linearGradient id="paint0_linear_574_14376" x1="27.5" y1="14" x2="75.0937" y2="77.4687" gradientUnits="userSpaceOnUse">
<stop stop-color="#FFDFA2"/>
<stop offset="1" stop-color="#FCAF3C"/>
</linearGradient>
<linearGradient id="paint1_linear_574_14376" x1="49.5028" y1="21.4063" x2="49.5028" y2="60.4063" gradientUnits="userSpaceOnUse">
<stop stop-color="#FFEAC8"/>
<stop offset="1" stop-color="#FEFDF5"/>
</linearGradient>
<linearGradient id="paint2_linear_574_14376" x1="34.875" y1="44.5625" x2="15.375" y2="54.3125" gradientUnits="userSpaceOnUse">
<stop stop-color="#FFC700"/>
<stop offset="1" stop-color="#F8A300"/>
</linearGradient>
<linearGradient id="paint3_linear_574_14376" x1="28.7805" y1="44.5625" x2="28.7805" y2="68.9375" gradientUnits="userSpaceOnUse">
<stop stop-color="#FFEAC8"/>
<stop offset="0.666667" stop-color="#FEFDF5"/>
</linearGradient>
<linearGradient id="paint4_linear_574_14376" x1="64.125" y1="44.5625" x2="83.625" y2="54.3125" gradientUnits="userSpaceOnUse">
<stop stop-color="#FFC700"/>
<stop offset="1" stop-color="#F8A300"/>
</linearGradient>
<linearGradient id="paint5_linear_574_14376" x1="70.2195" y1="44.5625" x2="70.2195" y2="68.9375" gradientUnits="userSpaceOnUse">
<stop stop-color="#FFEAC8"/>
<stop offset="0.666667" stop-color="#FEFDF5"/>
</linearGradient>
<linearGradient id="paint6_linear_574_14376" x1="38.5312" y1="49.4375" x2="43.2745" y2="50.228" gradientUnits="userSpaceOnUse">
<stop stop-color="#FFC700"/>
<stop offset="1" stop-color="#F8A300"/>
</linearGradient>
<linearGradient id="paint7_linear_574_14376" x1="39.7501" y1="49.4375" x2="39.7502" y2="64.0625" gradientUnits="userSpaceOnUse">
<stop stop-color="#FFEAC8"/>
<stop offset="1" stop-color="#FEFDF5"/>
</linearGradient>
<linearGradient id="paint8_linear_574_14376" x1="43.4062" y1="51.875" x2="47.9945" y2="53.0221" gradientUnits="userSpaceOnUse">
<stop stop-color="#FFC700"/>
<stop offset="1" stop-color="#F8A300"/>
</linearGradient>
<linearGradient id="paint9_linear_574_14376" x1="44.6251" y1="51.875" x2="44.6251" y2="61.625" gradientUnits="userSpaceOnUse">
<stop stop-color="#FFEAC8"/>
<stop offset="1" stop-color="#FEFDF5"/>
</linearGradient>
<linearGradient id="paint10_linear_574_14376" x1="58.0312" y1="49.4375" x2="62.7745" y2="50.228" gradientUnits="userSpaceOnUse">
<stop stop-color="#FFC700"/>
<stop offset="1" stop-color="#F8A300"/>
</linearGradient>
<linearGradient id="paint11_linear_574_14376" x1="59.2501" y1="49.4375" x2="59.2502" y2="64.0625" gradientUnits="userSpaceOnUse">
<stop stop-color="#FFEAC8"/>
<stop offset="1" stop-color="#FEFDF5"/>
</linearGradient>
<linearGradient id="paint12_linear_574_14376" x1="53.1562" y1="51.875" x2="57.7445" y2="53.0221" gradientUnits="userSpaceOnUse">
<stop stop-color="#FFC700"/>
<stop offset="1" stop-color="#F8A300"/>
</linearGradient>
<linearGradient id="paint13_linear_574_14376" x1="54.3751" y1="51.875" x2="54.3751" y2="61.625" gradientUnits="userSpaceOnUse">
<stop stop-color="#FFEAC8"/>
<stop offset="1" stop-color="#FEFDF5"/>
</linearGradient>
<linearGradient id="paint14_linear_574_14376" x1="48.2812" y1="47" x2="53.0812" y2="47.6" gradientUnits="userSpaceOnUse">
<stop stop-color="#FFC700"/>
<stop offset="1" stop-color="#F8A300"/>
</linearGradient>
<linearGradient id="paint15_linear_574_14376" x1="49.5001" y1="47" x2="49.5002" y2="66.5" gradientUnits="userSpaceOnUse">
<stop stop-color="#FFEAC8"/>
<stop offset="1" stop-color="#FEFDF5"/>
</linearGradient>
</defs>
</svg>
