<svg width="98" height="99" viewBox="0 0 98 99" fill="none" xmlns="http://www.w3.org/2000/svg">
<g filter="url(#filter0_d_574_14355)">
<path fill-rule="evenodd" clip-rule="evenodd" d="M11.6783 31.2154C14.317 18.4502 22.4355 11.3404 35.0992 9.19245C44.4606 7.60512 53.8254 7.58507 63.1708 9.23712C76.21 11.542 84.0483 19.0664 86.5454 32.0245C88.4748 42.0393 88.505 52.1606 86.5152 62.1656C83.8457 74.8426 75.5178 82.6676 62.9009 84.8075C53.5395 86.3949 44.1747 86.4149 34.8293 84.7629C21.7901 82.458 13.9169 74.558 11.4198 61.5999C9.39231 51.5192 9.58747 41.3338 11.6783 31.2154Z" fill="url(#paint0_linear_574_14355)"/>
</g>
<g filter="url(#filter1_d_574_14355)">
<path d="M37.5596 63.2733C37.625 63.5173 37.8051 63.7198 38.0602 63.8364C38.3154 63.953 38.6248 63.974 38.9202 63.8948L41.427 63.2231C41.6755 63.1565 41.8984 63.0233 42.0604 62.8446C42.2224 62.6658 42.3142 62.4518 42.3211 62.2366L42.5208 56.0272L36.0804 57.7529L37.5596 63.2733Z" fill="url(#paint1_linear_574_14355)"/>
<path d="M29.485 50.3169C28.8496 47.9456 30.2568 45.5082 32.6281 44.8729L39.0685 43.1472L42.5199 56.0279L36.0795 57.7536C33.7082 58.389 31.2708 56.9818 30.6355 54.6105L29.485 50.3169Z" fill="url(#paint2_linear_574_14355)"/>
<path d="M42.5209 56.0278C45.0957 55.7389 51.7338 56.4617 57.3204 58.172C59.1666 58.7372 61.1934 57.017 60.6937 55.152L54.6703 32.6724C54.1705 30.8074 51.6222 30.3753 50.4324 31.8959C46.5942 36.8007 41.4674 42.0996 39.0695 43.1471L42.5209 56.0278Z" fill="url(#paint3_linear_574_14355)"/>
<path opacity="0.6" fill-rule="evenodd" clip-rule="evenodd" d="M64.8061 33.4248C65.1624 33.7693 65.172 34.3375 64.8274 34.6938L61.1898 38.4559C60.8453 38.8123 60.2771 38.8218 59.9208 38.4773C59.5644 38.1327 59.5549 37.5646 59.8994 37.2082L63.537 33.4461C63.8816 33.0898 64.4498 33.0802 64.8061 33.4248ZM61.0714 43.2657C60.9431 42.787 61.2273 42.2948 61.706 42.1666L66.9074 40.7729C67.3862 40.6446 67.8783 40.9287 68.0066 41.4075C68.1349 41.8862 67.8508 42.3784 67.372 42.5066L62.1706 43.9004C61.6918 44.0286 61.1997 43.7445 61.0714 43.2657ZM62.4692 47.988C62.6055 47.5115 63.1023 47.2357 63.5789 47.372L68.6102 48.8112C69.0867 48.9476 69.3625 49.4444 69.2262 49.9209C69.0899 50.3975 68.5931 50.6733 68.1165 50.537L63.0852 49.0977C62.6086 48.9614 62.3328 48.4646 62.4692 47.988Z" fill="url(#paint4_linear_574_14355)"/>
</g>
<path fill-rule="evenodd" clip-rule="evenodd" d="M32.6333 28.9367C36.9594 25.0146 42.7007 22.625 49 22.625C62.4619 22.625 73.375 33.5381 73.375 47C73.375 52.6713 71.4382 57.8902 68.1899 62.0313C68.1621 62.0004 68.1325 61.9705 68.1011 61.9419L64.0792 58.2857C63.5811 57.8329 62.8103 57.8696 62.3576 58.3677C61.9048 58.8657 61.9415 59.6365 62.4396 60.0893L66.4614 63.7456C66.5072 63.7872 66.5554 63.8247 66.6053 63.8581C62.1683 68.4905 55.921 71.375 49 71.375C35.5381 71.375 24.625 60.4619 24.625 47C24.625 40.7007 27.0146 34.9595 30.9367 30.6334C30.9864 30.7048 31.0446 30.7719 31.1111 30.8333L39.8529 38.8976C40.3477 39.354 41.1187 39.3229 41.5751 38.8282C42.0315 38.3334 42.0004 37.5624 41.5057 37.106L32.7639 29.0417C32.7222 29.0033 32.6786 28.9683 32.6333 28.9367ZM49 20.1875C34.1919 20.1875 22.1875 32.1919 22.1875 47C22.1875 61.8081 34.1919 73.8125 49 73.8125C63.8081 73.8125 75.8125 61.8081 75.8125 47C75.8125 32.1919 63.8081 20.1875 49 20.1875Z" fill="url(#paint5_linear_574_14355)"/>
<defs>
<filter id="filter0_d_574_14355" x="0.25" y="0.6875" width="97.5" height="97.5" filterUnits="userSpaceOnUse" color-interpolation-filters="sRGB">
<feFlood flood-opacity="0" result="BackgroundImageFix"/>
<feColorMatrix in="SourceAlpha" type="matrix" values="0 0 0 0 0 0 0 0 0 0 0 0 0 0 0 0 0 0 127 0" result="hardAlpha"/>
<feOffset dy="2.4375"/>
<feGaussianBlur stdDeviation="4.875"/>
<feComposite in2="hardAlpha" operator="out"/>
<feColorMatrix type="matrix" values="0 0 0 0 1 0 0 0 0 0.87451 0 0 0 0 0.654902 0 0 0 0.5 0"/>
<feBlend mode="normal" in2="BackgroundImageFix" result="effect1_dropShadow_574_14355"/>
<feBlend mode="normal" in="SourceGraphic" in2="effect1_dropShadow_574_14355" result="shape"/>
</filter>
<filter id="filter1_d_574_14355" x="23.0222" y="23.1409" width="54.2927" height="48.0063" filterUnits="userSpaceOnUse" color-interpolation-filters="sRGB">
<feFlood flood-opacity="0" result="BackgroundImageFix"/>
<feColorMatrix in="SourceAlpha" type="matrix" values="0 0 0 0 0 0 0 0 0 0 0 0 0 0 0 0 0 0 127 0" result="hardAlpha"/>
<feOffset dy="1.21875"/>
<feGaussianBlur stdDeviation="1.21875"/>
<feComposite in2="hardAlpha" operator="out"/>
<feColorMatrix type="matrix" values="0 0 0 0 0.972549 0 0 0 0 0.525176 0 0 0 0 0 0 0 0 0.3 0"/>
<feBlend mode="normal" in2="BackgroundImageFix" result="effect1_dropShadow_574_14355"/>
<feBlend mode="normal" in="SourceGraphic" in2="effect1_dropShadow_574_14355" result="shape"/>
</filter>
<linearGradient id="paint0_linear_574_14355" x1="27" y1="14" x2="74.5937" y2="77.4687" gradientUnits="userSpaceOnUse">
<stop stop-color="#FFDFA2"/>
<stop offset="1" stop-color="#FCAF3C"/>
</linearGradient>
<linearGradient id="paint1_linear_574_14355" x1="39.301" y1="56.89" x2="39.9048" y2="64.3646" gradientUnits="userSpaceOnUse">
<stop stop-color="#FFDCA4"/>
<stop offset="1" stop-color="#FEFDF5"/>
</linearGradient>
<linearGradient id="paint2_linear_574_14355" x1="27.6812" y1="47.6963" x2="39.9051" y2="55.4752" gradientUnits="userSpaceOnUse">
<stop stop-color="#FFEAC8"/>
<stop offset="1" stop-color="#FEFDF5"/>
</linearGradient>
<linearGradient id="paint3_linear_574_14355" x1="41.0161" y1="49.9187" x2="57.685" y2="44.3624" gradientUnits="userSpaceOnUse">
<stop stop-color="#FFDFAC"/>
<stop offset="1" stop-color="#FEFDF5"/>
</linearGradient>
<linearGradient id="paint4_linear_574_14355" x1="62.2165" y1="33.6674" x2="66.8622" y2="51.0056" gradientUnits="userSpaceOnUse">
<stop stop-color="#FFEAC8"/>
<stop offset="1" stop-color="#FEFDF5"/>
</linearGradient>
<linearGradient id="paint5_linear_574_14355" x1="49.0037" y1="16.2153" x2="49.0037" y2="77.7847" gradientUnits="userSpaceOnUse">
<stop stop-color="#FFEAC8"/>
<stop offset="1" stop-color="#FEFDF5"/>
</linearGradient>
</defs>
</svg>
