<svg width="98" height="99" viewBox="0 0 98 99" fill="none" xmlns="http://www.w3.org/2000/svg">
<g filter="url(#filter0_d_574_14405)">
<path fill-rule="evenodd" clip-rule="evenodd" d="M11.6783 31.2154C14.317 18.4502 22.4355 11.3404 35.0992 9.19245C44.4606 7.60512 53.8254 7.58507 63.1708 9.23712C76.21 11.542 84.0483 19.0664 86.5454 32.0245C88.4748 42.0393 88.505 52.1606 86.5152 62.1656C83.8457 74.8426 75.5178 82.6676 62.9009 84.8075C53.5395 86.3949 44.1747 86.4149 34.8293 84.7629C21.7901 82.458 13.9169 74.558 11.4198 61.5999C9.39231 51.5192 9.58747 41.3338 11.6783 31.2154Z" fill="url(#paint0_linear_574_14405)"/>
</g>
<g filter="url(#filter1_d_574_14405)">
<path fill-rule="evenodd" clip-rule="evenodd" d="M26.0529 26.4904C24.625 27.9182 24.625 30.2163 24.625 34.8125V59.1875C24.625 63.7837 24.625 66.0818 26.0529 67.5096C27.4807 68.9375 29.7788 68.9375 34.375 68.9375H63.625C68.2212 68.9375 70.5193 68.9375 71.9471 67.5096C73.375 66.0818 73.375 63.7837 73.375 59.1875V34.8125C73.375 30.2163 73.375 27.9182 71.9471 26.4904C70.5193 25.0625 68.2212 25.0625 63.625 25.0625H34.375C29.7788 25.0625 27.4807 25.0625 26.0529 26.4904ZM27.7764 28.2139C27.0625 28.9279 27.0625 30.0769 27.0625 32.375V51.875H70.9375V32.375C70.9375 30.0769 70.9375 28.9279 70.2236 28.2139C69.5096 27.5 68.3606 27.5 66.0625 27.5H31.9375C29.6394 27.5 28.4904 27.5 27.7764 28.2139Z" fill="#C4C4C4"/>
<path fill-rule="evenodd" clip-rule="evenodd" d="M26.0529 26.4904C24.625 27.9182 24.625 30.2163 24.625 34.8125V59.1875C24.625 63.7837 24.625 66.0818 26.0529 67.5096C27.4807 68.9375 29.7788 68.9375 34.375 68.9375H63.625C68.2212 68.9375 70.5193 68.9375 71.9471 67.5096C73.375 66.0818 73.375 63.7837 73.375 59.1875V34.8125C73.375 30.2163 73.375 27.9182 71.9471 26.4904C70.5193 25.0625 68.2212 25.0625 63.625 25.0625H34.375C29.7788 25.0625 27.4807 25.0625 26.0529 26.4904ZM27.7764 28.2139C27.0625 28.9279 27.0625 30.0769 27.0625 32.375V51.875H70.9375V32.375C70.9375 30.0769 70.9375 28.9279 70.2236 28.2139C69.5096 27.5 68.3606 27.5 66.0625 27.5H31.9375C29.6394 27.5 28.4904 27.5 27.7764 28.2139Z" fill="url(#paint1_linear_574_14405)"/>
<path d="M35.5331 33.763C35.7995 33.763 36.0232 33.8646 36.2043 34.0677C36.3854 34.2595 36.476 34.5022 36.476 34.7956V44.5794C36.476 44.8728 36.3748 45.1211 36.1724 45.3242C35.9699 45.5161 35.7196 45.612 35.4213 45.612C35.123 45.612 34.8779 45.5161 34.6862 45.3242C34.4944 45.1211 34.3985 44.8728 34.3985 44.5794V36.556L33.4077 37.1992C33.2479 37.3008 33.0774 37.3516 32.8963 37.3516C32.63 37.3516 32.4009 37.2444 32.2092 37.0299C32.0281 36.8155 31.9375 36.5786 31.9375 36.319C31.9375 36.1385 31.9801 35.9692 32.0653 35.8112C32.1612 35.6532 32.2837 35.5291 32.4329 35.4388L34.846 33.9154C35.0271 33.8138 35.2561 33.763 35.5331 33.763Z" fill="#FEFFFF"/>
<path d="M35.5331 33.763C35.7995 33.763 36.0232 33.8646 36.2043 34.0677C36.3854 34.2595 36.476 34.5022 36.476 34.7956V44.5794C36.476 44.8728 36.3748 45.1211 36.1724 45.3242C35.9699 45.5161 35.7196 45.612 35.4213 45.612C35.123 45.612 34.8779 45.5161 34.6862 45.3242C34.4944 45.1211 34.3985 44.8728 34.3985 44.5794V36.556L33.4077 37.1992C33.2479 37.3008 33.0774 37.3516 32.8963 37.3516C32.63 37.3516 32.4009 37.2444 32.2092 37.0299C32.0281 36.8155 31.9375 36.5786 31.9375 36.319C31.9375 36.1385 31.9801 35.9692 32.0653 35.8112C32.1612 35.6532 32.2837 35.5291 32.4329 35.4388L34.846 33.9154C35.0271 33.8138 35.2561 33.763 35.5331 33.763Z" fill="url(#paint2_linear_574_14405)"/>
<path d="M42.5847 45.7812C41.6898 45.7812 40.9174 45.5273 40.2675 45.0195C39.6283 44.5117 39.1435 43.8008 38.8133 42.8867C38.483 41.9614 38.3179 40.895 38.3179 39.6875C38.3179 38.48 38.483 37.4193 38.8133 36.5052C39.1435 35.5799 39.6283 34.8633 40.2675 34.3555C40.9174 33.8477 41.6898 33.5938 42.5847 33.5938C43.4796 33.5938 44.2467 33.8477 44.8859 34.3555C45.5358 34.8633 46.0258 35.5799 46.3561 36.5052C46.6864 37.4193 46.8515 38.48 46.8515 39.6875C46.8515 40.895 46.6864 41.9614 46.3561 42.8867C46.0258 43.8008 45.5358 44.5117 44.8859 45.0195C44.2467 45.5273 43.4796 45.7812 42.5847 45.7812ZM42.5847 43.75C43.2665 43.75 43.7992 43.4058 44.1827 42.7174C44.5769 42.0291 44.774 41.0191 44.774 39.6875C44.774 38.3559 44.5769 37.3459 44.1827 36.6576C43.7992 35.9692 43.2665 35.625 42.5847 35.625C41.9028 35.625 41.3648 35.9692 40.9706 36.6576C40.5871 37.3459 40.3953 38.3559 40.3953 39.6875C40.3953 41.0191 40.5871 42.0291 40.9706 42.7174C41.3648 43.4058 41.9028 43.75 42.5847 43.75Z" fill="#FEFFFF"/>
<path d="M42.5847 45.7812C41.6898 45.7812 40.9174 45.5273 40.2675 45.0195C39.6283 44.5117 39.1435 43.8008 38.8133 42.8867C38.483 41.9614 38.3179 40.895 38.3179 39.6875C38.3179 38.48 38.483 37.4193 38.8133 36.5052C39.1435 35.5799 39.6283 34.8633 40.2675 34.3555C40.9174 33.8477 41.6898 33.5938 42.5847 33.5938C43.4796 33.5938 44.2467 33.8477 44.8859 34.3555C45.5358 34.8633 46.0258 35.5799 46.3561 36.5052C46.6864 37.4193 46.8515 38.48 46.8515 39.6875C46.8515 40.895 46.6864 41.9614 46.3561 42.8867C46.0258 43.8008 45.5358 44.5117 44.8859 45.0195C44.2467 45.5273 43.4796 45.7812 42.5847 45.7812ZM42.5847 43.75C43.2665 43.75 43.7992 43.4058 44.1827 42.7174C44.5769 42.0291 44.774 41.0191 44.774 39.6875C44.774 38.3559 44.5769 37.3459 44.1827 36.6576C43.7992 35.9692 43.2665 35.625 42.5847 35.625C41.9028 35.625 41.3648 35.9692 40.9706 36.6576C40.5871 37.3459 40.3953 38.3559 40.3953 39.6875C40.3953 41.0191 40.5871 42.0291 40.9706 42.7174C41.3648 43.4058 41.9028 43.75 42.5847 43.75Z" fill="url(#paint3_linear_574_14405)"/>
<path d="M54.3345 39.4336C54.8352 39.7496 55.2241 40.1445 55.5011 40.6185C55.7887 41.0812 55.9326 41.5664 55.9326 42.0742C55.9326 42.7174 55.7621 43.3099 55.4212 43.8516C55.0909 44.3932 54.6381 44.8221 54.0628 45.138C53.4982 45.454 52.875 45.612 52.1931 45.612C51.5113 45.612 50.8827 45.454 50.3074 45.138C49.7428 44.8221 49.29 44.3932 48.9491 43.8516C48.6188 43.3099 48.4537 42.7174 48.4537 42.0742C48.4537 40.9909 48.9704 40.1107 50.0038 39.4336C49.6309 39.2079 49.3219 38.9032 49.0769 38.5195C48.8425 38.1359 48.7253 37.6845 48.7253 37.1654C48.7253 36.5447 48.8798 35.9748 49.1888 35.4557C49.4977 34.9366 49.9132 34.5247 50.4353 34.2201C50.9679 33.9154 51.5539 33.763 52.1931 33.763C52.8323 33.763 53.413 33.9154 53.935 34.2201C54.4677 34.5247 54.8832 34.9366 55.1815 35.4557C55.4904 35.9748 55.6449 36.5447 55.6449 37.1654C55.6449 37.7296 55.5171 38.1979 55.2614 38.5703C55.0164 38.9314 54.7074 39.2192 54.3345 39.4336ZM52.1931 35.625C51.7457 35.625 51.3728 35.7773 51.0745 36.082C50.7868 36.3754 50.643 36.7478 50.643 37.1992C50.643 37.6619 50.7868 38.0456 51.0745 38.3503C51.3728 38.6437 51.7457 38.7904 52.1931 38.7904C52.6299 38.7904 52.9921 38.638 53.2798 38.3333C53.5781 38.0286 53.7273 37.6506 53.7273 37.1992C53.7273 36.7478 53.5781 36.3754 53.2798 36.082C52.9921 35.7773 52.6299 35.625 52.1931 35.625ZM52.1931 43.75C52.7045 43.75 53.136 43.5864 53.4875 43.2591C53.8391 42.9206 54.0149 42.5143 54.0149 42.0404C54.0149 41.5551 53.8391 41.1489 53.4875 40.8216C53.136 40.4831 52.7045 40.3138 52.1931 40.3138C51.6817 40.3138 51.2503 40.4831 50.8987 40.8216C50.5471 41.1489 50.3713 41.5551 50.3713 42.0404C50.3713 42.5143 50.5471 42.9206 50.8987 43.2591C51.2503 43.5864 51.6817 43.75 52.1931 43.75Z" fill="#FEFFFF"/>
<path d="M54.3345 39.4336C54.8352 39.7496 55.2241 40.1445 55.5011 40.6185C55.7887 41.0812 55.9326 41.5664 55.9326 42.0742C55.9326 42.7174 55.7621 43.3099 55.4212 43.8516C55.0909 44.3932 54.6381 44.8221 54.0628 45.138C53.4982 45.454 52.875 45.612 52.1931 45.612C51.5113 45.612 50.8827 45.454 50.3074 45.138C49.7428 44.8221 49.29 44.3932 48.9491 43.8516C48.6188 43.3099 48.4537 42.7174 48.4537 42.0742C48.4537 40.9909 48.9704 40.1107 50.0038 39.4336C49.6309 39.2079 49.3219 38.9032 49.0769 38.5195C48.8425 38.1359 48.7253 37.6845 48.7253 37.1654C48.7253 36.5447 48.8798 35.9748 49.1888 35.4557C49.4977 34.9366 49.9132 34.5247 50.4353 34.2201C50.9679 33.9154 51.5539 33.763 52.1931 33.763C52.8323 33.763 53.413 33.9154 53.935 34.2201C54.4677 34.5247 54.8832 34.9366 55.1815 35.4557C55.4904 35.9748 55.6449 36.5447 55.6449 37.1654C55.6449 37.7296 55.5171 38.1979 55.2614 38.5703C55.0164 38.9314 54.7074 39.2192 54.3345 39.4336ZM52.1931 35.625C51.7457 35.625 51.3728 35.7773 51.0745 36.082C50.7868 36.3754 50.643 36.7478 50.643 37.1992C50.643 37.6619 50.7868 38.0456 51.0745 38.3503C51.3728 38.6437 51.7457 38.7904 52.1931 38.7904C52.6299 38.7904 52.9921 38.638 53.2798 38.3333C53.5781 38.0286 53.7273 37.6506 53.7273 37.1992C53.7273 36.7478 53.5781 36.3754 53.2798 36.082C52.9921 35.7773 52.6299 35.625 52.1931 35.625ZM52.1931 43.75C52.7045 43.75 53.136 43.5864 53.4875 43.2591C53.8391 42.9206 54.0149 42.5143 54.0149 42.0404C54.0149 41.5551 53.8391 41.1489 53.4875 40.8216C53.136 40.4831 52.7045 40.3138 52.1931 40.3138C51.6817 40.3138 51.2503 40.4831 50.8987 40.8216C50.5471 41.1489 50.3713 41.5551 50.3713 42.0404C50.3713 42.5143 50.5471 42.9206 50.8987 43.2591C51.2503 43.5864 51.6817 43.75 52.1931 43.75Z" fill="url(#paint4_linear_574_14405)"/>
<path d="M61.7957 45.7812C60.9008 45.7812 60.1284 45.5273 59.4785 45.0195C58.8393 44.5117 58.3545 43.8008 58.0243 42.8867C57.694 41.9614 57.5289 40.895 57.5289 39.6875C57.5289 38.48 57.694 37.4193 58.0243 36.5052C58.3545 35.5799 58.8393 34.8633 59.4785 34.3555C60.1284 33.8477 60.9008 33.5938 61.7957 33.5938C62.6906 33.5938 63.4577 33.8477 64.0969 34.3555C64.7468 34.8633 65.2368 35.5799 65.5671 36.5052C65.8974 37.4193 66.0625 38.48 66.0625 39.6875C66.0625 40.895 65.8974 41.9614 65.5671 42.8867C65.2368 43.8008 64.7468 44.5117 64.0969 45.0195C63.4577 45.5273 62.6906 45.7812 61.7957 45.7812ZM61.7957 43.75C62.4775 43.75 63.0102 43.4058 63.3937 42.7174C63.7879 42.0291 63.985 41.0191 63.985 39.6875C63.985 38.3559 63.7879 37.3459 63.3937 36.6576C63.0102 35.9692 62.4775 35.625 61.7957 35.625C61.1139 35.625 60.5758 35.9692 60.1817 36.6576C59.7981 37.3459 59.6064 38.3559 59.6064 39.6875C59.6064 41.0191 59.7981 42.0291 60.1817 42.7174C60.5758 43.4058 61.1139 43.75 61.7957 43.75Z" fill="#FEFFFF"/>
<path d="M61.7957 45.7812C60.9008 45.7812 60.1284 45.5273 59.4785 45.0195C58.8393 44.5117 58.3545 43.8008 58.0243 42.8867C57.694 41.9614 57.5289 40.895 57.5289 39.6875C57.5289 38.48 57.694 37.4193 58.0243 36.5052C58.3545 35.5799 58.8393 34.8633 59.4785 34.3555C60.1284 33.8477 60.9008 33.5938 61.7957 33.5938C62.6906 33.5938 63.4577 33.8477 64.0969 34.3555C64.7468 34.8633 65.2368 35.5799 65.5671 36.5052C65.8974 37.4193 66.0625 38.48 66.0625 39.6875C66.0625 40.895 65.8974 41.9614 65.5671 42.8867C65.2368 43.8008 64.7468 44.5117 64.0969 45.0195C63.4577 45.5273 62.6906 45.7812 61.7957 45.7812ZM61.7957 43.75C62.4775 43.75 63.0102 43.4058 63.3937 42.7174C63.7879 42.0291 63.985 41.0191 63.985 39.6875C63.985 38.3559 63.7879 37.3459 63.3937 36.6576C63.0102 35.9692 62.4775 35.625 61.7957 35.625C61.1139 35.625 60.5758 35.9692 60.1817 36.6576C59.7981 37.3459 59.6064 38.3559 59.6064 39.6875C59.6064 41.0191 59.7981 42.0291 60.1817 42.7174C60.5758 43.4058 61.1139 43.75 61.7957 43.75Z" fill="url(#paint5_linear_574_14405)"/>
<path d="M46.473 55.5312C46.7389 55.5312 46.9526 55.6102 47.1141 55.768C47.2756 55.9259 47.3563 56.1302 47.3563 56.3809V64.4316C47.3563 64.673 47.2708 64.8773 47.0999 65.0445C46.9289 65.2023 46.7105 65.2812 46.4445 65.2812C46.2071 65.2812 46.0029 65.2023 45.8319 65.0445C45.661 64.8773 45.5755 64.673 45.5755 64.4316V61.1863H41.0308V64.4316C41.0308 64.673 40.9406 64.8773 40.7601 65.0445C40.5797 65.2023 40.3707 65.2812 40.1333 65.2812C39.8768 65.2812 39.6632 65.2023 39.4922 65.0445C39.3307 64.8773 39.25 64.673 39.25 64.4316V56.3809C39.25 56.1395 39.3355 55.9398 39.5064 55.782C39.6774 55.6148 39.8958 55.5312 40.1618 55.5312C40.3992 55.5312 40.6034 55.6148 40.7744 55.782C40.9453 55.9398 41.0308 56.1395 41.0308 56.3809V59.5845H45.5755V56.3809C45.5755 56.1395 45.6657 55.9398 45.8462 55.782C46.0266 55.6148 46.2356 55.5312 46.473 55.5312Z" fill="#FEFFFF"/>
<path d="M46.473 55.5312C46.7389 55.5312 46.9526 55.6102 47.1141 55.768C47.2756 55.9259 47.3563 56.1302 47.3563 56.3809V64.4316C47.3563 64.673 47.2708 64.8773 47.0999 65.0445C46.9289 65.2023 46.7105 65.2812 46.4445 65.2812C46.2071 65.2812 46.0029 65.2023 45.8319 65.0445C45.661 64.8773 45.5755 64.673 45.5755 64.4316V61.1863H41.0308V64.4316C41.0308 64.673 40.9406 64.8773 40.7601 65.0445C40.5797 65.2023 40.3707 65.2812 40.1333 65.2812C39.8768 65.2812 39.6632 65.2023 39.4922 65.0445C39.3307 64.8773 39.25 64.673 39.25 64.4316V56.3809C39.25 56.1395 39.3355 55.9398 39.5064 55.782C39.6774 55.6148 39.8958 55.5312 40.1618 55.5312C40.3992 55.5312 40.6034 55.6148 40.7744 55.782C40.9453 55.9398 41.0308 56.1395 41.0308 56.3809V59.5845H45.5755V56.3809C45.5755 56.1395 45.6657 55.9398 45.8462 55.782C46.0266 55.6148 46.2356 55.5312 46.473 55.5312Z" fill="url(#paint6_linear_574_14405)"/>
<path d="M46.473 55.5312C46.7389 55.5312 46.9526 55.6102 47.1141 55.768C47.2756 55.9259 47.3563 56.1302 47.3563 56.3809V64.4316C47.3563 64.673 47.2708 64.8773 47.0999 65.0445C46.9289 65.2023 46.7105 65.2812 46.4445 65.2812C46.2071 65.2812 46.0029 65.2023 45.8319 65.0445C45.661 64.8773 45.5755 64.673 45.5755 64.4316V61.1863H41.0308V64.4316C41.0308 64.673 40.9406 64.8773 40.7601 65.0445C40.5797 65.2023 40.3707 65.2812 40.1333 65.2812C39.8768 65.2812 39.6632 65.2023 39.4922 65.0445C39.3307 64.8773 39.25 64.673 39.25 64.4316V56.3809C39.25 56.1395 39.3355 55.9398 39.5064 55.782C39.6774 55.6148 39.8958 55.5312 40.1618 55.5312C40.3992 55.5312 40.6034 55.6148 40.7744 55.782C40.9453 55.9398 41.0308 56.1395 41.0308 56.3809V59.5845H45.5755V56.3809C45.5755 56.1395 45.6657 55.9398 45.8462 55.782C46.0266 55.6148 46.2356 55.5312 46.473 55.5312Z" fill="url(#paint7_linear_574_14405)"/>
<path d="M54.476 55.5312C55.3688 55.5312 56.1334 55.7495 56.7697 56.1859C57.4156 56.613 57.9047 57.198 58.2371 57.9409C58.579 58.6745 58.75 59.4962 58.75 60.4062C58.75 61.3162 58.579 62.1427 58.2371 62.8855C57.9047 63.6191 57.4156 64.2041 56.7697 64.6405C56.1334 65.0677 55.3688 65.2812 54.476 65.2812H51.0711C50.8242 65.2812 50.6152 65.2023 50.4442 65.0445C50.2828 64.8773 50.2021 64.673 50.2021 64.4316V56.3809C50.2021 56.1395 50.2828 55.9398 50.4442 55.782C50.6152 55.6148 50.8242 55.5312 51.0711 55.5312H54.476ZM54.3336 63.6795C55.1884 63.6795 55.8295 63.373 56.2568 62.7602C56.6842 62.138 56.8979 61.3534 56.8979 60.4062C56.8979 59.4591 56.6795 58.6791 56.2426 58.0663C55.8152 57.4441 55.1789 57.133 54.3336 57.133H51.9829V63.6795H54.3336Z" fill="#FEFFFF"/>
<path d="M54.476 55.5312C55.3688 55.5312 56.1334 55.7495 56.7697 56.1859C57.4156 56.613 57.9047 57.198 58.2371 57.9409C58.579 58.6745 58.75 59.4962 58.75 60.4062C58.75 61.3162 58.579 62.1427 58.2371 62.8855C57.9047 63.6191 57.4156 64.2041 56.7697 64.6405C56.1334 65.0677 55.3688 65.2812 54.476 65.2812H51.0711C50.8242 65.2812 50.6152 65.2023 50.4442 65.0445C50.2828 64.8773 50.2021 64.673 50.2021 64.4316V56.3809C50.2021 56.1395 50.2828 55.9398 50.4442 55.782C50.6152 55.6148 50.8242 55.5312 51.0711 55.5312H54.476ZM54.3336 63.6795C55.1884 63.6795 55.8295 63.373 56.2568 62.7602C56.6842 62.138 56.8979 61.3534 56.8979 60.4062C56.8979 59.4591 56.6795 58.6791 56.2426 58.0663C55.8152 57.4441 55.1789 57.133 54.3336 57.133H51.9829V63.6795H54.3336Z" fill="url(#paint8_linear_574_14405)"/>
<path d="M54.476 55.5312C55.3688 55.5312 56.1334 55.7495 56.7697 56.1859C57.4156 56.613 57.9047 57.198 58.2371 57.9409C58.579 58.6745 58.75 59.4962 58.75 60.4062C58.75 61.3162 58.579 62.1427 58.2371 62.8855C57.9047 63.6191 57.4156 64.2041 56.7697 64.6405C56.1334 65.0677 55.3688 65.2812 54.476 65.2812H51.0711C50.8242 65.2812 50.6152 65.2023 50.4442 65.0445C50.2828 64.8773 50.2021 64.673 50.2021 64.4316V56.3809C50.2021 56.1395 50.2828 55.9398 50.4442 55.782C50.6152 55.6148 50.8242 55.5312 51.0711 55.5312H54.476ZM54.3336 63.6795C55.1884 63.6795 55.8295 63.373 56.2568 62.7602C56.6842 62.138 56.8979 61.3534 56.8979 60.4062C56.8979 59.4591 56.6795 58.6791 56.2426 58.0663C55.8152 57.4441 55.1789 57.133 54.3336 57.133H51.9829V63.6795H54.3336Z" fill="url(#paint9_linear_574_14405)"/>
</g>
<defs>
<filter id="filter0_d_574_14405" x="0.249999" y="0.687499" width="97.5" height="97.5" filterUnits="userSpaceOnUse" color-interpolation-filters="sRGB">
<feFlood flood-opacity="0" result="BackgroundImageFix"/>
<feColorMatrix in="SourceAlpha" type="matrix" values="0 0 0 0 0 0 0 0 0 0 0 0 0 0 0 0 0 0 127 0" result="hardAlpha"/>
<feOffset dy="2.4375"/>
<feGaussianBlur stdDeviation="4.875"/>
<feComposite in2="hardAlpha" operator="out"/>
<feColorMatrix type="matrix" values="0 0 0 0 1 0 0 0 0 0.87451 0 0 0 0 0.654902 0 0 0 0.5 0"/>
<feBlend mode="normal" in2="BackgroundImageFix" result="effect1_dropShadow_574_14405"/>
<feBlend mode="normal" in="SourceGraphic" in2="effect1_dropShadow_574_14405" result="shape"/>
</filter>
<filter id="filter1_d_574_14405" x="22.1875" y="23.8437" width="53.625" height="48.75" filterUnits="userSpaceOnUse" color-interpolation-filters="sRGB">
<feFlood flood-opacity="0" result="BackgroundImageFix"/>
<feColorMatrix in="SourceAlpha" type="matrix" values="0 0 0 0 0 0 0 0 0 0 0 0 0 0 0 0 0 0 127 0" result="hardAlpha"/>
<feOffset dy="1.21875"/>
<feGaussianBlur stdDeviation="1.21875"/>
<feComposite in2="hardAlpha" operator="out"/>
<feColorMatrix type="matrix" values="0 0 0 0 0.972549 0 0 0 0 0.525176 0 0 0 0 0 0 0 0 0.3 0"/>
<feBlend mode="normal" in2="BackgroundImageFix" result="effect1_dropShadow_574_14405"/>
<feBlend mode="normal" in="SourceGraphic" in2="effect1_dropShadow_574_14405" result="shape"/>
</filter>
<linearGradient id="paint0_linear_574_14405" x1="27" y1="14" x2="74.5937" y2="77.4687" gradientUnits="userSpaceOnUse">
<stop stop-color="#FFDFA2"/>
<stop offset="1" stop-color="#FCAF3C"/>
</linearGradient>
<linearGradient id="paint1_linear_574_14405" x1="49.003" y1="25.0625" x2="49.003" y2="68.9375" gradientUnits="userSpaceOnUse">
<stop stop-color="#FFEAC8"/>
<stop offset="1" stop-color="#FEFDF5"/>
</linearGradient>
<linearGradient id="paint2_linear_574_14405" x1="49.0021" y1="33.5938" x2="49.0021" y2="45.7813" gradientUnits="userSpaceOnUse">
<stop stop-color="#FFEAC8"/>
<stop offset="1" stop-color="#FEFDF5"/>
</linearGradient>
<linearGradient id="paint3_linear_574_14405" x1="49.0021" y1="33.5938" x2="49.0021" y2="45.7813" gradientUnits="userSpaceOnUse">
<stop stop-color="#FFEAC8"/>
<stop offset="1" stop-color="#FEFDF5"/>
</linearGradient>
<linearGradient id="paint4_linear_574_14405" x1="49.0021" y1="33.5938" x2="49.0021" y2="45.7813" gradientUnits="userSpaceOnUse">
<stop stop-color="#FFEAC8"/>
<stop offset="1" stop-color="#FEFDF5"/>
</linearGradient>
<linearGradient id="paint5_linear_574_14405" x1="49.0021" y1="33.5938" x2="49.0021" y2="45.7813" gradientUnits="userSpaceOnUse">
<stop stop-color="#FFEAC8"/>
<stop offset="1" stop-color="#FEFDF5"/>
</linearGradient>
<linearGradient id="paint6_linear_574_14405" x1="56.8797" y1="66.0793" x2="47.0879" y2="51.2957" gradientUnits="userSpaceOnUse">
<stop stop-color="#FFDFAC"/>
<stop offset="1" stop-color="#FEFDF5"/>
</linearGradient>
<linearGradient id="paint7_linear_574_14405" x1="49" y1="53.0937" x2="46.1345" y2="64.5655" gradientUnits="userSpaceOnUse">
<stop stop-color="#FFDFA2"/>
<stop offset="1" stop-color="#FCAF3C"/>
</linearGradient>
<linearGradient id="paint8_linear_574_14405" x1="56.8797" y1="66.0793" x2="47.0879" y2="51.2957" gradientUnits="userSpaceOnUse">
<stop stop-color="#FFDFAC"/>
<stop offset="1" stop-color="#FEFDF5"/>
</linearGradient>
<linearGradient id="paint9_linear_574_14405" x1="49" y1="53.0937" x2="46.1345" y2="64.5655" gradientUnits="userSpaceOnUse">
<stop stop-color="#FFDFA2"/>
<stop offset="1" stop-color="#FCAF3C"/>
</linearGradient>
</defs>
</svg>
