<svg xmlns="http://www.w3.org/2000/svg" width="300" height="111" viewBox="0 0 300 111">
    <defs>
        <linearGradient id="a" x1="50%" x2="50%" y1="0%" y2="100%">
            <stop offset="0%" stop-color="#FCC74D"/>
            <stop offset="100%" stop-color="#F89B20"/>
        </linearGradient>
        <linearGradient id="b" x1="75.937%" x2="9.787%" y1="40.55%" y2="66.247%">
            <stop offset="0%" stop-color="#FFF" stop-opacity="0"/>
            <stop offset="100%" stop-color="#FFF"/>
        </linearGradient>
    </defs>
    <g fill="none" fill-rule="evenodd">
        <path fill="url(#a)" d="M43.637 68.95L43 449.08c26.15-12.747 58.26-1.799 87.183 9.155 21.147 8.01 40.592 16.021 54.758 14.776 42.944-3.774 45.822-66.224 155.933-29.983 106.353 35.004 148.535-71.535 88.873-117.726-82.003-63.488-79.433-115.277-56.813-140.067 15.663-17.164 33.987-10.69 54.795-4.222 14.605 4.54 30.434 9.078 47.425 5.44 39.221-8.398 28.08-44.49 58.925-68.152 21.707-16.65 79.925-11.626 80.1-46.496v-.214c0-1.153-.067-2.35-.2-3.591l-570.342.95z" transform="scale(-1 1) rotate(15 1456.357 -1434.498)"/>
        <path fill="#FFF" fill-rule="nonzero" d="M54.91 79.209h15.633c2.156 0 3.878.719 5.166 2.156 1.168 1.318 1.752 2.89 1.752 4.717 0 1.857-.584 3.444-1.752 4.762C74.421 92.28 72.699 93 70.543 93H40.445c-2.485 0-4.514-.606-6.087-1.82C32.786 89.969 32 88.404 32 86.487c0-2.306 1.527-5.18 4.582-8.625 2.246-2.306 4.492-4.627 6.738-6.963l3.982-4.533c2.774-3.177 4.617-5.338 5.528-6.483l.238-.304c4.612-5.9 6.918-10.242 6.918-13.027 0-4.103-1.901-6.155-5.705-6.155-2.755 0-4.761 1.198-6.02 3.594a442.687 442.687 0 0 0-2.56 6.694c-1.198 2.395-3.1 3.593-5.705 3.593-2.246 0-4.028-.778-5.346-2.336-1.168-1.347-1.752-2.964-1.752-4.851 0-5.72 2.097-10.632 6.29-14.735 4.312-4.222 9.643-6.334 15.992-6.334 5.84 0 10.736 1.812 14.69 5.436 4.072 3.744 6.109 8.55 6.109 14.42 0 5.51-2.531 11.5-7.592 17.969L54.91 79.209zm50.807 6.424V34.87c0-5.27 2.485-7.906 7.457-7.906 1.74 0 3.244.487 4.511 1.46l.25.202c.959.779 2.8 2.89 5.526 6.334l24.752 30.996h.18V34.871c0-5.27 2.485-7.906 7.457-7.906 4.971 0 7.457 2.635 7.457 7.906v50.762c0 5.27-2.486 7.906-7.457 7.906-1.857 0-3.444-.554-4.762-1.662l-.204-.18c-1.004-.916-2.778-2.968-5.321-6.154L120.81 54.547h-.18v31.086c0 5.27-2.486 7.906-7.457 7.906-4.972 0-7.457-2.635-7.457-7.906zm63.295-7.367l14.375-38.723c1.737-4.702 3.204-7.861 4.402-9.479 2.007-2.695 4.672-4.043 7.996-4.043 3.414 0 6.14 1.348 8.176 4.043 1.228 1.618 2.71 4.777 4.447 9.479l14.33 38.723c1.468 3.983 2.201 7.052 2.201 9.209 0 1.826-.658 3.294-1.976 4.402s-3.04 1.662-5.166 1.662c-2.246 0-3.998-.689-5.256-2.066-.958-1.049-1.827-2.785-2.605-5.211l-1.797-5.885h-24.483l-1.842 5.885c-.748 2.426-1.602 4.162-2.56 5.21-1.288 1.378-3.04 2.067-5.256 2.067-2.126 0-3.856-.554-5.188-1.662-1.333-1.108-2-2.576-2-4.402 0-2.157.734-5.226 2.202-9.21zm34.68-11.68l-7.458-23.988h-.18l-7.995 23.988h15.632zm-7.907-52.154c1.993 0 3.547-1.177 4.662-3.53l.122-.266c1.123-2.53 2.419-3.796 3.886-3.796 2.636 0 3.953 1.452 3.953 4.357 0 3.085-1.235 5.638-3.706 7.66-2.47 2.02-5.443 3.032-8.917 3.032-3.504 0-6.484-1.011-8.94-3.033-2.455-2.021-3.683-4.574-3.683-7.659 0-2.905 1.303-4.357 3.908-4.357 1.442 0 2.704 1.173 3.785 3.52l.124.276c1.108 2.53 2.71 3.796 4.806 3.796zM228.893 70l5.884-33.691c1.108-6.23 4.388-9.344 9.838-9.344 3.504 0 6.11 1.198 7.817 3.594 1.287 1.826 2.98 5.99 5.076 12.488l7.277 22.55h.18l7.277-22.55c2.097-6.499 3.789-10.662 5.076-12.488 1.707-2.396 4.298-3.594 7.772-3.594 5.48 0 8.775 3.114 9.883 9.344l6.06 34.708c1.53 8.841 2.295 13.998 2.295 15.47 0 1.796-.614 3.383-1.842 4.761-1.347 1.527-3.07 2.291-5.166 2.291-2.994 0-5.18-1.003-6.558-3.01-.858-1.286-1.524-3.418-2-6.397l-4.514-29.495h-.18l-10.017 32.209c-1.378 4.462-4.103 6.693-8.176 6.693s-6.798-2.231-8.176-6.693l-10.062-32.21h-.18l-4.402 29.065c-.48 3.205-1.183 5.48-2.112 6.828-1.347 2.007-3.533 3.01-6.558 3.01-2.067 0-3.774-.764-5.121-2.291-1.156-1.297-1.768-2.779-1.836-4.447l-.006-.315c0-1.527.823-7.022 2.47-16.486z" opacity=".146"/>
        <path fill="url(#b)" d="M254.302 276.986h244.05v65.901l-244.05 82.975z" opacity=".111" transform="translate(-254.302 -349.986)"/>
    </g>
</svg>
