<svg xmlns="http://www.w3.org/2000/svg" width="300" height="111" viewBox="0 0 300 111">
    <defs>
        <linearGradient id="a" x1="50%" x2="50%" y1="0%" y2="100%">
            <stop offset="0%" stop-color="#FBDD97"/>
            <stop offset="100%" stop-color="#FABF71"/>
        </linearGradient>
        <linearGradient id="b" x1="75.937%" x2="9.787%" y1="40.55%" y2="66.247%">
            <stop offset="0%" stop-color="#FFF" stop-opacity="0"/>
            <stop offset="100%" stop-color="#FFF"/>
        </linearGradient>
    </defs>
    <g fill="none" fill-rule="evenodd">
        <path fill="url(#a)" d="M43.637 68.95L43 449.08c26.15-12.747 58.26-1.799 87.183 9.155 21.147 8.01 40.592 16.021 54.758 14.776 42.944-3.774 45.822-66.224 155.933-29.983 106.353 35.004 148.535-71.535 88.873-117.726-82.003-63.488-79.433-115.277-56.813-140.067 15.663-17.164 33.987-10.69 54.795-4.222 14.605 4.54 30.434 9.078 47.425 5.44 39.221-8.398 28.08-44.49 58.925-68.152 21.707-16.65 79.925-11.626 80.1-46.496v-.214c0-1.153-.067-2.35-.2-3.591l-570.342.95z" transform="scale(-1 1) rotate(15 1456.357 -1434.498)"/>
        <path fill="#FFF" fill-rule="nonzero" d="M35.898 68.111c0-9.613 4.328-19.795 12.983-30.547l1.056-1.303c4.715-5.796 8.088-9.615 10.118-11.458l.146-.131c1.947-1.767 3.848-2.65 5.705-2.65 2.246 0 4.058.883 5.436 2.65 1.168 1.467 1.752 2.98 1.752 4.537 0 1.737-1.385 4.104-4.156 7.1l-1.15 1.231c-4.064 4.377-6.922 7.784-8.575 10.222l.18.224c1.467-.509 3.399-.763 5.794-.763 5.241 0 9.659 2.14 13.252 6.423 3.415 4.043 5.122 8.745 5.122 14.106 0 6.469-2.202 11.86-6.604 16.172-4.522 4.372-10.257 6.558-17.205 6.558-7.218 0-12.997-2.058-17.34-6.176-4.342-4.118-6.514-9.516-6.514-16.195zm15.498-.359c0 2.276.817 4.238 2.449 5.885 1.632 1.647 3.601 2.47 5.907 2.47 2.276 0 4.238-.823 5.885-2.47 1.647-1.647 2.47-3.609 2.47-5.885s-.823-4.238-2.47-5.885c-1.647-1.647-3.609-2.47-5.885-2.47-2.306 0-4.275.823-5.907 2.47-1.632 1.647-2.449 3.609-2.449 5.885zm71.112 13.88V37.296h-8.356c-5.15 0-7.726-2.306-7.726-6.918 0-4.582 2.575-6.873 7.726-6.873h31.625c5.151 0 7.727 2.29 7.727 6.873 0 4.612-2.576 6.918-7.727 6.918h-8.355v44.338c0 5.27-2.486 7.906-7.457 7.906-4.972 0-7.457-2.635-7.457-7.906zm47.303-19.316v19.317c0 5.27-2.486 7.906-7.457 7.906-4.972 0-7.458-2.635-7.458-7.906V30.87c0-5.27 2.486-7.906 7.458-7.906 4.97 0 7.457 2.635 7.457 7.906v17.654h27.761V30.871c0-5.27 2.486-7.906 7.457-7.906 4.972 0 7.457 2.635 7.457 7.906v50.762c0 5.27-2.485 7.906-7.457 7.906-4.971 0-7.457-2.635-7.457-7.906V62.316h-27.761zm48.38 11.95l14.375-38.723c1.737-4.702 3.205-7.861 4.403-9.479 2.006-2.695 4.672-4.043 7.996-4.043 3.414 0 6.14 1.348 8.176 4.043 1.185 1.562 2.608 4.561 4.268 8.998l14.509 39.204c1.467 3.983 2.201 7.052 2.201 9.209 0 1.826-.659 3.294-1.976 4.402-1.318 1.108-3.04 1.662-5.166 1.662-2.247 0-3.998-.689-5.256-2.066-.959-1.049-1.827-2.785-2.606-5.211l-1.797-5.885h-24.482l-1.842 5.885c-.749 2.426-1.602 4.162-2.56 5.21-1.288 1.378-3.04 2.067-5.256 2.067-2.127 0-3.856-.554-5.189-1.662-1.332-1.108-1.999-2.576-1.999-4.402 0-2.157.734-5.226 2.201-9.21zm34.68-11.68l-7.457-23.988h-.18l-7.996 23.988h15.633zm1.078-58.084c1.018-.42 2.022-.629 3.01-.629 1.437 0 2.598.487 3.481 1.46.884.973 1.326 2.179 1.326 3.616 0 1.917-.914 3.265-2.74 4.043l-11.051 4.762c-1.019.45-2.022.674-3.01.674-1.438 0-2.59-.487-3.46-1.46-.868-.974-1.302-2.179-1.302-3.616 0-1.917.899-3.265 2.695-4.043l11.051-4.807zm23.674 77.13v-50.76c0-5.272 2.486-7.907 7.457-7.907 1.857 0 3.444.554 4.762 1.662l.203.173c.861.766 2.287 2.383 4.28 4.854l25.794 32.303h.18V30.871c0-5.27 2.485-7.906 7.457-7.906 4.971 0 7.457 2.635 7.457 7.906v50.762c0 5.27-2.486 7.906-7.457 7.906-1.857 0-3.444-.554-4.762-1.662l-.203-.18c-.969-.883-2.653-2.822-5.053-5.817l-25.021-31.333h-.18v31.086c0 5.27-2.486 7.906-7.457 7.906s-7.457-2.635-7.457-7.906zm101.12-31.445h16.081c5.271 0 7.906 3.025 7.906 9.075 0 8.984-2.68 16.381-8.04 22.191-5.57 6.02-12.818 9.03-21.743 9.03-9.972 0-17.924-3.355-23.853-10.063-5.57-6.35-8.356-14.405-8.356-24.168 0-9.913 3.047-18.096 9.142-24.55 6.094-6.454 13.783-9.68 23.067-9.68 6.649 0 12.414 1.242 17.295 3.728 5.39 2.725 8.086 6.274 8.086 10.646 0 1.857-.606 3.362-1.82 4.515-1.212 1.153-2.837 1.73-4.873 1.73-1.438 0-3.871-1.138-7.3-3.414-3.43-2.276-7.015-3.414-10.759-3.414-5.091 0-9.194 1.976-12.308 5.93-3.025 3.833-4.538 8.67-4.538 14.509 0 5.6 1.318 10.272 3.954 14.016 2.994 4.282 7.202 6.423 12.623 6.423 3.893 0 7.105-1.16 9.635-3.481 2.531-2.321 3.976-5.398 4.335-9.231h-8.535c-2.336 0-4.163-.63-5.48-1.887-1.318-1.258-1.977-2.935-1.977-5.031 0-4.583 2.486-6.873 7.457-6.873z" opacity=".146"/>
        <path fill="url(#b)" d="M254.302 276.986h244.05v65.901l-244.05 82.975z" opacity=".111" transform="translate(-254.302 -349.986)"/>
    </g>
</svg>
