<svg xmlns="http://www.w3.org/2000/svg" width="300" height="111" viewBox="0 0 300 111">
    <defs>
        <linearGradient id="a" x1="50%" x2="50%" y1="0%" y2="100%">
            <stop offset="0%" stop-color="#FFD677"/>
            <stop offset="100%" stop-color="#F7AA45"/>
        </linearGradient>
        <linearGradient id="b" x1="75.937%" x2="9.787%" y1="40.55%" y2="66.247%">
            <stop offset="0%" stop-color="#FFF" stop-opacity="0"/>
            <stop offset="100%" stop-color="#FFF"/>
        </linearGradient>
    </defs>
    <g fill="none" fill-rule="evenodd">
        <path fill="url(#a)" d="M43.637 68.95L43 449.08c26.15-12.747 58.26-1.799 87.183 9.155 21.147 8.01 40.592 16.021 54.758 14.776 42.944-3.774 45.822-66.224 155.933-29.983 106.353 35.004 148.535-71.535 88.873-117.726-82.003-63.488-79.433-115.277-56.813-140.067 15.663-17.164 33.987-10.69 54.795-4.222 14.605 4.54 30.434 9.078 47.425 5.44 39.221-8.398 28.08-44.49 58.925-68.152 21.707-16.65 79.925-11.626 80.1-46.496v-.214c0-1.153-.067-2.35-.2-3.591l-570.342.95z" transform="scale(-1 1) rotate(15 1456.357 -1434.498)"/>
        <path fill="#FFF" fill-rule="nonzero" d="M43.23 85.633V41.295h-4.716c-2.157 0-3.879-.719-5.166-2.156-1.138-1.318-1.707-2.905-1.707-4.762 0-1.827.569-3.4 1.707-4.717 1.287-1.437 3.01-2.156 5.166-2.156h12.173c4.972 0 7.458 2.486 7.458 7.457v50.672c0 5.27-2.486 7.906-7.458 7.906-4.97 0-7.457-2.635-7.457-7.906zm47.124 0V34.87c0-5.27 2.485-7.906 7.457-7.906 1.74 0 3.244.487 4.511 1.46l.25.202c.959.779 2.8 2.89 5.526 6.334l24.752 30.996h.18V34.871c0-5.27 2.485-7.906 7.456-7.906 4.972 0 7.457 2.635 7.457 7.906v50.762c0 5.27-2.485 7.906-7.457 7.906-1.856 0-3.444-.554-4.761-1.662l-.204-.18c-1.004-.916-2.778-2.968-5.322-6.154l-24.752-30.996h-.18v31.086c0 5.27-2.485 7.906-7.456 7.906-4.972 0-7.457-2.635-7.457-7.906zm63.294-7.367l14.375-38.723c1.737-4.702 3.205-7.861 4.403-9.479 2.006-2.695 4.672-4.043 7.996-4.043 3.414 0 6.14 1.348 8.176 4.043 1.185 1.562 2.608 4.561 4.268 8.998l14.509 39.204c1.467 3.983 2.201 7.052 2.201 9.209 0 1.826-.659 3.294-1.976 4.402-1.318 1.108-3.04 1.662-5.166 1.662-2.247 0-3.998-.689-5.256-2.066-.959-1.049-1.827-2.785-2.606-5.211l-1.797-5.885h-24.482l-1.842 5.885c-.749 2.426-1.602 4.162-2.56 5.21-1.288 1.378-3.04 2.067-5.256 2.067-2.127 0-3.856-.554-5.189-1.662-1.332-1.108-1.999-2.576-1.999-4.402 0-2.157.734-5.226 2.201-9.21zm34.68-11.68l-7.457-23.988h-.18l-7.996 23.988h15.633zm-7.906-52.154c1.992 0 3.546-1.177 4.662-3.53l.122-.266c1.123-2.53 2.418-3.796 3.886-3.796 2.635 0 3.953 1.452 3.953 4.357 0 3.085-1.235 5.638-3.706 7.66-2.47 2.02-5.443 3.032-8.917 3.032-3.504 0-6.484-1.011-8.94-3.033-2.455-2.021-3.683-4.574-3.683-7.659 0-2.905 1.303-4.357 3.908-4.357 1.442 0 2.703 1.173 3.784 3.52l.124.276c1.108 2.53 2.71 3.796 4.807 3.796zM213.529 70l5.885-33.691c1.108-6.23 4.387-9.344 9.838-9.344 3.504 0 6.11 1.198 7.816 3.594 1.288 1.826 2.98 5.99 5.077 12.488l7.277 22.55h.18l7.277-22.55c2.096-6.499 3.788-10.662 5.076-12.488 1.707-2.396 4.298-3.594 7.772-3.594 5.48 0 8.774 3.114 9.882 9.344l6.395 36.647c1.307 7.66 1.96 12.17 1.96 13.53 0 1.797-.613 3.384-1.841 4.762-1.348 1.527-3.07 2.291-5.166 2.291-2.995 0-5.181-1.003-6.559-3.01-.857-1.286-1.524-3.418-2-6.397l-4.513-29.495h-.18l-10.017 32.209c-1.378 4.462-4.103 6.693-8.176 6.693s-6.798-2.231-8.176-6.693l-10.063-32.21h-.18l-4.402 29.065c-.479 3.205-1.183 5.48-2.11 6.828-1.349 2.007-3.535 3.01-6.56 3.01-2.066 0-3.773-.764-5.12-2.291-1.228-1.378-1.842-2.965-1.842-4.762l.013-.396c.11-1.951.93-7.315 2.457-16.09z" opacity=".146"/>
        <path fill="url(#b)" d="M254.302 276.986h244.05v65.901l-244.05 82.975z" opacity=".111" transform="translate(-254.302 -349.986)"/>
    </g>
</svg>
